<svg xmlns="http://www.w3.org/2000/svg" viewBox="0 0 32 32" role="img" aria-label="Map Wilderness">
  <defs>
    <linearGradient id="bg" x1="0" y1="0" x2="32" y2="32" gradientUnits="userSpaceOnUse">
      <stop offset="0%" stop-color="#0d2229"/>
      <stop offset="100%" stop-color="#071820"/>
    </linearGradient>
    <linearGradient id="sky" x1="16" y1="4" x2="16" y2="22" gradientUnits="userSpaceOnUse">
      <stop offset="0%" stop-color="#14333d"/>
      <stop offset="100%" stop-color="#0d2229"/>
    </linearGradient>
  </defs>
  <rect width="32" height="32" rx="7" fill="url(#bg)"/>
  <rect x="0" y="0" width="32" height="20" rx="7" fill="url(#sky)" opacity="0.55"/>
  <circle cx="24.5" cy="7.5" r="2.8" fill="#f7c873" opacity="0.95"/>
  <circle cx="25.6" cy="6.8" r="2.3" fill="#071820"/>
  <circle cx="10" cy="6" r="0.55" fill="#68d8ff" opacity="0.85"/>
  <circle cx="14.5" cy="4.5" r="0.4" fill="#68d8ff" opacity="0.65"/>
  <path fill="#1a4a55" opacity="0.85" d="M0 22 7 13 13 19 19 10 26 18 32 14 32 32 0 32Z"/>
  <path fill="#2db872" opacity="0.55" d="M0 26 5 20 11 25 17 17 24 24 32 19 32 32 0 32Z"/>
  <ellipse cx="16" cy="28.5" rx="11" ry="1.2" fill="#68d8ff" opacity="0.28"/>
  <path fill="#45b884" d="M5 28 3 18 8 18Z M5 28 3.5 21 8.5 21Z M5 28 4 24 8 24Z"/>
  <rect x="4.6" y="24" width="1.2" height="4" rx="0.3" fill="#2db872"/>
  <path fill="#52d593" d="M16 28 11 16 21 16Z M16 28 12 20 20 20Z M16 28 12.5 24 19.5 24Z"/>
  <rect x="15.2" y="24" width="1.6" height="4" rx="0.3" fill="#45b884"/>
  <path fill="#45b884" d="M25 28 22 19 28 19Z M25 28 22.5 22.5 27.5 22.5Z"/>
  <rect x="24.4" y="22.5" width="1.2" height="5.5" rx="0.3" fill="#2db872"/>
</svg>
